<svg width="819" height="24" xmlns="http://www.w3.org/2000/svg"><g fill="#f18634" fill-rule="evenodd"><rect width="24" height="24" rx="12"/><rect x="312" width="24" height="24" rx="12"/><rect x="156" width="24" height="24" rx="12"/><rect x="468" width="24" height="24" rx="12"/><rect x="663" width="24" height="24" rx="12"/><rect x="78" width="24" height="24" rx="12"/><rect x="390" width="24" height="24" rx="12"/><rect x="234" width="24" height="24" rx="12"/><rect x="546" width="24" height="24" rx="12"/><rect x="741" width="24" height="24" rx="12"/><rect x="39" width="24" height="24" rx="12"/><rect x="351" width="24" height="24" rx="12"/><rect x="195" width="24" height="24" rx="12"/><rect x="507" width="24" height="24" rx="12"/><rect x="702" width="24" height="24" rx="12"/><rect x="117" width="24" height="24" rx="12"/><rect x="429" width="24" height="24" rx="12"/><rect x="624" width="24" height="24" rx="12"/><rect x="273" width="24" height="24" rx="12"/><rect x="585" width="24" height="24" rx="12"/><rect x="780" width="24" height="24" rx="12"/></g></svg>
