<?xml version="1.0" standalone="no"?>
<!DOCTYPE svg PUBLIC "-//W3C//DTD SVG 20010904//EN"
 "http://www.w3.org/TR/2001/REC-SVG-20010904/DTD/svg10.dtd">
<svg version="1.0" xmlns="http://www.w3.org/2000/svg"
 width="700.000000pt" height="700.000000pt" viewBox="0 0 700.000000 700.000000"
 preserveAspectRatio="xMidYMid meet">
<metadata>
Created by potrace 1.14, written by Peter Selinger 2001-2017
</metadata>
<g transform="translate(0.000000,700.000000) scale(0.100000,-0.100000)"
fill="#000000" stroke="none">
<path d="M3363 6122 c-57 -23 -111 -75 -136 -131 -19 -43 -20 -65 -21 -331 0
-286 0 -286 24 -325 114 -186 396 -155 451 50 14 50 14 536 0 582 -10 35 -45
90 -71 111 -66 55 -171 74 -247 44z"/>
<path d="M1865 5857 c-143 -55 -214 -207 -156 -332 38 -82 284 -491 314 -524
102 -107 282 -94 370 27 40 54 49 80 52 141 4 64 -9 93 -145 326 -182 312
-179 309 -265 350 -55 27 -120 31 -170 12z"/>
<path d="M4880 5861 c-46 -15 -85 -39 -116 -73 -48 -50 -312 -511 -324 -564
-17 -77 9 -162 70 -226 71 -74 207 -93 293 -39 66 41 88 73 310 460 63 110 72
132 75 186 7 99 -51 196 -144 240 -43 21 -125 29 -164 16z"/>
<path d="M3219 4586 c-2 -2 -40 -7 -84 -11 -80 -6 -194 -20 -250 -30 -16 -3
-59 -10 -95 -16 -36 -6 -99 -20 -141 -30 -42 -10 -85 -20 -95 -22 -138 -26
-515 -155 -682 -232 -29 -14 -55 -25 -58 -25 -10 0 -315 -155 -372 -189 -29
-17 -55 -31 -57 -31 -3 0 -74 -44 -158 -97 -338 -215 -563 -395 -827 -662
-192 -194 -243 -257 -263 -326 -38 -134 5 -208 283 -485 545 -543 1298 -982
2030 -1185 127 -35 336 -83 400 -91 19 -2 60 -8 90 -14 164 -28 317 -37 555
-34 240 3 270 5 445 31 234 34 562 111 710 168 19 7 87 32 150 55 63 23 133
50 155 60 22 10 83 37 135 60 441 198 935 527 1298 865 205 191 351 354 371
414 14 44 14 125 -1 170 -18 54 -106 160 -258 311 -160 160 -203 199 -335 306
-390 315 -834 578 -1255 743 -58 23 -114 46 -125 51 -18 8 -207 69 -325 105
-54 17 -165 45 -200 52 -14 2 -45 9 -70 14 -25 6 -54 12 -65 14 -79 14 -218
35 -255 40 -25 3 -61 8 -80 11 -42 6 -565 15 -571 10z m381 -510 c85 -11 107
-15 134 -26 15 -5 26 -7 26 -5 0 2 39 -9 88 -26 502 -177 840 -637 846 -1154
1 -134 -6 -209 -28 -305 -53 -227 -168 -432 -336 -600 -244 -244 -544 -369
-880 -368 -343 1 -632 121 -876 363 -243 242 -366 532 -368 865 -1 154 5 213
34 323 94 359 334 652 665 813 222 108 465 150 695 120z m-1715 -451 c-70
-139 -140 -351 -159 -481 -3 -21 -10 -68 -15 -104 -10 -68 -7 -370 4 -430 45
-240 86 -373 170 -542 29 -60 51 -108 48 -108 -9 0 -229 115 -322 168 -284
163 -560 373 -803 611 -48 47 -88 90 -88 94 0 20 320 307 480 431 109 84 267
191 446 303 75 47 276 154 281 150 1 -2 -17 -43 -42 -92z m3175 32 c110 -60
267 -152 365 -216 95 -62 304 -209 315 -221 3 -3 25 -21 50 -40 96 -73 285
-237 368 -319 l24 -24 -68 -66 c-239 -229 -450 -398 -714 -572 -130 -86 -430
-257 -430 -245 0 3 15 36 34 73 85 169 148 363 171 518 3 23 8 52 11 65 12 53
11 330 -2 431 -23 194 -91 417 -175 576 -21 40 -39 76 -39 78 0 7 30 -6 90
-38z"/>
<path d="M3306 3539 c-277 -67 -503 -290 -561 -553 -23 -103 -16 -272 14 -364
63 -191 191 -342 370 -432 135 -69 331 -94 470 -60 153 37 253 91 356 195 92
92 144 176 182 290 38 116 42 296 9 411 -28 95 -70 182 -122 250 -101 134
-253 228 -434 271 -56 14 -212 9 -284 -8z m230 -512 c85 -44 129 -151 103
-246 -17 -61 -90 -135 -150 -151 -155 -42 -302 97 -268 251 32 139 189 212
315 146z"/>
</g>
</svg>
